:SAMPLES-PER-SECOND 30
:FULLY-SPECIFIED
:DEGREES
510
root  4.03161 38.4512 0.0972148 125.574 -86.4108 -125.814
RightUpLeg  1.74281 -12.6438 -17.6595
RightLeg  -0.828581 3.65013 -0.32843
RightFoot  3.97028 -3.43094 25.3421
RightToes  1.16414e-010 0 -3.6325e-017
Spine  9.25603 0.0246051 0.814774
Spine1  -4.60189 -0.14931 2.39539
HEad  4.18702 -6.26331 1.18824
LeftShoulder1  1.6664 -3.14383 -18.5042
LeftArm  -0.951325 22.3953 -45.9429
LeftForeArm  1.31113 -17.7791 -7.60034
LeftHand  -0.763165 -0.376948 15.4444
RightShoulder  1.54404 2.3991 19.7917
RightArm  9.10941 -16.3534 49.7591
RightForeArm  10.1733 16.2217 9.4124
RightHand  -0.740572 -0.168497 -16.4614
LeftUpLeg  3.25755 17.2521 25.8574
LeftLeg  -0.190387 -6.18164 2.45179
LeftFoot  2.71171 3.40352 -27.2745
LeftToes  7.09373e-011 9.9627e-011 8.96859e-012
511
root  4.00914 38.4446 0.0733897 124.454 -86.1982 -124.586
RightUpLeg  1.69093 -12.5419 -17.3917
RightLeg  -0.872219 3.56407 -0.287639
RightFoot  3.83811 -3.42692 25.5231
RightToes  1.16414e-010 0 -3.6325e-017
Spine  8.78741 0.0502945 0.787481
Spine1  -4.37875 -0.16178 2.61586
HEad  4.16177 -6.8752 1.21036
LeftShoulder1  1.66815 -3.13162 -18.5823
LeftArm  -0.0874698 21.9955 -46.3775
LeftForeArm  2.06842 -17.6995 -7.68077
LeftHand  -0.781353 -0.583574 15.2779
RightShoulder  1.5598 2.45394 19.8163
RightArm  8.01851 -15.1796 49.6456
RightForeArm  9.52467 16.1981 9.37716
RightHand  -0.766505 -0.127622 -16.9038
LeftUpLeg  3.38539 17.4723 26.2199
LeftLeg  -0.499992 -6.38157 2.39806
LeftFoot  2.73217 3.43214 -27.4567
LeftToes  7.09373e-011 9.9627e-011 8.96859e-012
512
root  3.98464 38.4419 0.0662066 123.538 -86.1038 -123.669
RightUpLeg  1.7748 -12.4898 -17.2839
RightLeg  -0.927545 3.53067 -0.275924
RightFoot  3.74365 -3.42011 25.6261
RightToes  1.16414e-010 0 -3.6325e-017
Spine  8.48461 0.0489047 0.753072
Spine1  -4.34807 -0.179688 2.69415
HEad  4.03949 -7.71481 0.918493
LeftShoulder1  1.6711 -3.14389 -18.5804
LeftArm  0.362832 21.6503 -46.9529
LeftForeArm  3.33352 -17.4466 -7.84119
LeftHand  -0.785582 -0.679087 15.1263
RightShoulder  1.57509 2.50892 19.8325
RightArm  6.03748 -14.0181 49.6018
RightForeArm  9.81841 15.638 9.67919
RightHand  -0.782422 -0.0772392 -17.0918
LeftUpLeg  3.57913 17.5746 26.4228
LeftLeg  -0.764447 -6.42788 2.38814
LeftFoot  2.71809 3.45859 -27.6865
LeftToes  7.09373e-011 9.9627e-011 8.96859e-012
513
root  3.96538 38.4345 0.0712609 120.654 -86.0995 -120.883
RightUpLeg  1.98347 -12.3941 -17.1929
RightLeg  -0.924536 3.34976 -0.342197
RightFoot  3.61565 -3.4041 25.7181
RightToes  1.16414e-010 0 -3.6325e-017
Spine  8.41882 0.0100501 0.808875
Spine1  -4.55109 -0.203563 2.62364
HEad  3.78525 -8.86716 0.550008
LeftShoulder1  1.69621 -3.25595 -18.532
LeftArm  0.932954 21.3345 -47.512
LeftForeArm  3.67506 -17.2566 -8.00835
LeftHand  -0.740276 -0.518123 14.6359
RightShoulder  1.57592 2.51675 19.8036
RightArm  4.29412 -13.0048 49.6994
RightForeArm  10.1394 14.9138 10.1001
RightHand  -0.792659 -0.0718361 -17.295
LeftUpLeg  3.60868 17.6152 26.5653
LeftLeg  -0.683423 -6.63808 2.42691
LeftFoot  2.52793 3.45086 -27.9863
LeftToes  7.09373e-011 9.9627e-011 8.96859e-012
514
root  3.93996 38.4276 0.0790187 116.388 -86.133 -116.742
RightUpLeg  2.27638 -12.2648 -17.0894
RightLeg  -0.941752 3.02547 -0.454782
RightFoot  3.50049 -3.39439 25.8365
RightToes  1.16414e-010 0 -3.6325e-017
Spine  8.37513 -0.0073693 0.901947
Spine1  -4.76207 -0.197285 2.49795
HEad  3.4717 -10.2496 0.213835
LeftShoulder1  1.74452 -3.41796 -18.6518
LeftArm  1.89233 20.8516 -47.8601
LeftForeArm  2.59879 -17.1571 -8.19675
LeftHand  -0.65805 -0.168995 13.8211
RightShoulder  1.57236 2.51605 19.7401
RightArm  3.20288 -12.1628 49.9073
RightForeArm  10.2835 14.1825 10.5546
RightHand  -0.810484 -0.0604772 -17.642
LeftUpLeg  3.55361 17.6589 26.7001
LeftLeg  -0.488645 -7.03778 2.45335
LeftFoot  2.33954 3.42667 -28.1607
LeftToes  7.09373e-011 9.9627e-011 8.96859e-012
515
root  3.89554 38.4253 0.0871614 113.422 -86.2261 -113.906
RightUpLeg  2.57821 -12.2282 -17.1358
RightLeg  -0.94691 2.84113 -0.531387
RightFoot  3.39003 -3.38746 25.9693
RightToes  1.16414e-010 0 -3.6325e-017
Spine  8.2378 0.037031 0.883094
Spine1  -4.86336 -0.139103 2.39276
HEad  3.16162 -11.7583 -0.300745
LeftShoulder1  1.80033 -3.56618 -18.9343
LeftArm  3.32919 20.3011 -48.0508
LeftForeArm  1.2492 -17.2039 -8.31598
LeftHand  -0.601063 0.0985668 13.2552
RightShoulder  1.57276 2.54035 19.645
RightArm  2.70553 -11.3641 50.1972
RightForeArm  10.879 13.3342 11.1006
RightHand  -0.819314 -0.0827726 -17.9048
LeftUpLeg  3.63679 17.6797 26.7489
LeftLeg  -0.444191 -7.34637 2.42528
LeftFoot  2.25298 3.40397 -28.1509
LeftToes  7.09373e-011 9.9627e-011 8.96859e-012
516
root  3.83876 38.4199 0.101297 112.098 -86.4065 -112.762
RightUpLeg  2.83594 -12.3144 -17.3856
RightLeg  -0.773502 2.91056 -0.564651
RightFoot  3.18487 -3.3575 26.0935
RightToes  1.16414e-010 0 -3.6325e-017
Spine  8.16223 0.0775398 0.835728
Spine1  -4.97472 -0.0607661 2.13286
HEad  2.88037 -13.3033 -1.14352
LeftShoulder1  1.84292 -3.70242 -19.0538
LeftArm  5.42526 19.936 -48.2741
LeftForeArm  0.786653 -17.5256 -8.21711
LeftHand  -0.601579 0.0572914 13.1639
RightShoulder  1.58687 2.59183 19.6547
RightArm  3.24519 -10.5489 50.5008
RightForeArm  12.0294 12.5162 11.6685
RightHand  -0.801716 -0.191092 -17.8781
LeftUpLeg  3.82007 17.6319 26.67
LeftLeg  -0.360715 -7.51473 2.38004
LeftFoot  2.1035 3.36435 -28.1301
LeftToes  7.09373e-011 9.9627e-011 8.96859e-012
517
root  3.7849 38.4064 0.118409 109.76 -86.6053 -110.689
RightUpLeg  3.10977 -12.4091 -17.6617
RightLeg  -0.411013 3.01075 -0.607034
RightFoot  2.86372 -3.29604 26.1833
RightToes  1.16414e-010 0 -3.6325e-017
Spine  8.27783 0.0457303 0.995636
Spine1  -5.14692 0.00722316 1.51698
HEad  2.62671 -14.828 -2.23108
LeftShoulder1  1.8549 -3.80307 -18.8509
LeftArm  8.03892 19.6352 -48.5463
LeftForeArm  1.11577 -18.0608 -7.92079
LeftHand  -0.617739 -0.125025 13.0841
RightShoulder  1.63064 2.69969 19.9255
RightArm  5.56457 -9.89885 50.7492
RightForeArm  12.9635 12.3051 11.9818
RightHand  -0.767662 -0.352104 -17.659
LeftUpLeg  3.94275 17.5484 26.5773
LeftLeg  -0.0474701 -7.77764 2.37375
LeftFoot  1.83324 3.30615 -28.2007
LeftToes  7.09373e-011 9.9627e-011 8.96859e-012
518
root  3.7306 38.3914 0.127187 104.387 -86.7557 -105.635
RightUpLeg  3.49721 -12.437 -17.8331
RightLeg  -0.0304861 2.93738 -0.673273
RightFoot  2.50346 -3.22083 26.2395
RightToes  1.16414e-010 0 -3.6325e-017
Spine  8.42965 -0.0083506 1.35749
Spine1  -5.19109 0.091029 0.683888
HEad  2.36697 -16.4238 -3.42872
LeftShoulder1  1.83741 -3.80695 -18.5782
LeftArm  11.1839 19.1035 -48.6762
LeftForeArm  1.28085 -18.889 -7.37288
LeftHand  -0.592077 -0.0923112 12.6124
RightShoulder  1.70368 2.89312 20.2979
RightArm  10.3396 -9.78919 51.042
RightForeArm  12.5557 13.4623 11.5577
RightHand  -0.722301 -0.561757 -17.3241
LeftUpLeg  4.04352 17.4882 26.5815
LeftLeg  0.265882 -8.24394 2.40517
LeftFoot  1.57632 3.25344 -28.2919
LeftToes  7.09373e-011 9.9627e-011 8.96859e-012
519
root  3.6577 38.3763 0.130163 96.2796 -86.8491 -97.8407
RightUpLeg  3.9759 -12.4347 -17.9531
RightLeg  0.317872 2.71201 -0.739789
RightFoot  2.12888 -3.14344 26.3074
RightToes  1.16414e-010 0 -3.6325e-017
Spine  8.41677 0.00241138 1.7303
Spine1  -4.9642 0.233367 -0.0935418
HEad  2.0581 -18.0434 -4.61041
LeftShoulder1  1.81262 -3.74357 -18.4463
LeftArm  15.5769 18.5203 -48.4736
LeftForeArm  0.732387 -20.6712 -6.17914
LeftHand  -0.538508 0.127932 11.9447
RightShoulder  1.76364 3.09668 20.3905
RightArm  18.4095 -10.5747 51.5439
RightForeArm  9.53297 16.5706 9.56348
RightHand  -0.665753 -0.784508 -16.7273
LeftUpLeg  4.16839 17.4371 26.6427
LeftLeg  0.459598 -8.83779 2.45256
LeftFoot  1.2518 3.18523 -28.3986
LeftToes  7.09373e-011 9.9627e-011 8.96859e-012
